<svg width="40" height="40" viewBox="0 0 40 40" fill="none" xmlns="http://www.w3.org/2000/svg">
<path d="M38.3333 16.1833C38.4158 13.7978 37.8941 11.43 36.8167 9.3C36.0857 8.42599 35.0712 7.83618 33.95 7.63333C29.3125 7.21254 24.6559 7.04007 20 7.11666C15.3611 7.03659 10.7212 7.2035 6.1 7.61666C5.18637 7.78286 4.34087 8.2114 3.66667 8.85C2.16667 10.2333 2 12.6 1.83334 14.6C1.59152 18.1959 1.59152 21.8041 1.83334 25.4C1.88155 26.5257 2.04916 27.643 2.33334 28.7333C2.5343 29.5751 2.94088 30.3539 3.51667 31C4.19545 31.6724 5.06064 32.1253 6 32.3C9.5932 32.7435 13.2137 32.9273 16.8333 32.85C22.6667 32.9333 27.7833 32.85 33.8333 32.3833C34.7958 32.2194 35.6853 31.7659 36.3833 31.0833C36.8499 30.6165 37.1985 30.0452 37.4 29.4167C37.9961 27.5877 38.2888 25.6735 38.2667 23.75C38.3333 22.8167 38.3333 17.1833 38.3333 16.1833V16.1833ZM16.2333 24.75V14.4333L26.1 19.6167C23.3333 21.15 19.6833 22.8833 16.2333 24.75Z" fill="#F08142"/>
</svg>
