<svg width="40" height="40" viewBox="0 0 40 40" fill="none" xmlns="http://www.w3.org/2000/svg">
<path d="M28.9 9.1C28.5044 9.1 28.1177 9.2173 27.7888 9.43706C27.4599 9.65683 27.2036 9.96918 27.0522 10.3346C26.9008 10.7001 26.8612 11.1022 26.9384 11.4902C27.0156 11.8781 27.2061 12.2345 27.4858 12.5142C27.7655 12.7939 28.1218 12.9844 28.5098 13.0616C28.8978 13.1387 29.2999 13.0991 29.6653 12.9478C30.0308 12.7964 30.3432 12.54 30.5629 12.2111C30.7827 11.8822 30.9 11.4956 30.9 11.1C30.9 10.5696 30.6893 10.0609 30.3142 9.68579C29.9391 9.31072 29.4304 9.1 28.9 9.1V9.1ZM36.5666 13.1333C36.5342 11.7505 36.2752 10.3823 35.8 9.08334C35.3762 7.97189 34.7166 6.96547 33.8666 6.13334C33.0414 5.27905 32.0326 4.62363 30.9166 4.21667C29.6211 3.72694 28.2514 3.46202 26.8666 3.43334C25.1 3.33334 24.5333 3.33334 20 3.33334C15.4666 3.33334 14.9 3.33334 13.1333 3.43334C11.7486 3.46202 10.3789 3.72694 9.08331 4.21667C7.96944 4.62775 6.96154 5.2826 6.13331 6.13334C5.27902 6.95863 4.62361 7.9674 4.21665 9.08334C3.72691 10.3789 3.462 11.7486 3.43331 13.1333C3.33331 14.9 3.33331 15.4667 3.33331 20C3.33331 24.5333 3.33331 25.1 3.43331 26.8667C3.462 28.2514 3.72691 29.6211 4.21665 30.9167C4.62361 32.0326 5.27902 33.0414 6.13331 33.8667C6.96154 34.7174 7.96944 35.3723 9.08331 35.7833C10.3789 36.2731 11.7486 36.538 13.1333 36.5667C14.9 36.6667 15.4666 36.6667 20 36.6667C24.5333 36.6667 25.1 36.6667 26.8666 36.5667C28.2514 36.538 29.6211 36.2731 30.9166 35.7833C32.0326 35.3764 33.0414 34.721 33.8666 33.8667C34.7204 33.0376 35.3805 32.0303 35.8 30.9167C36.2752 29.6177 36.5342 28.2495 36.5666 26.8667C36.5666 25.1 36.6666 24.5333 36.6666 20C36.6666 15.4667 36.6666 14.9 36.5666 13.1333V13.1333ZM33.5666 26.6667C33.5545 27.7246 33.3629 28.7728 33 29.7667C32.7339 30.492 32.3064 31.1474 31.75 31.6833C31.2094 32.2342 30.5554 32.6607 29.8333 32.9333C28.8395 33.2963 27.7913 33.4879 26.7333 33.5C25.0666 33.5833 24.45 33.6 20.0666 33.6C15.6833 33.6 15.0666 33.6 13.4 33.5C12.3015 33.5206 11.2076 33.3514 10.1666 33C9.47628 32.7135 8.85224 32.288 8.33331 31.75C7.78013 31.2146 7.35805 30.5587 7.09998 29.8333C6.69307 28.8253 6.46739 27.7532 6.43331 26.6667C6.43331 25 6.33331 24.3833 6.33331 20C6.33331 15.6167 6.33331 15 6.43331 13.3333C6.44078 12.2518 6.63823 11.1799 7.01665 10.1667C7.31006 9.46319 7.76042 8.8361 8.33331 8.33334C8.83967 7.76028 9.46546 7.30516 10.1666 7C11.1826 6.63341 12.2533 6.4418 13.3333 6.43334C15 6.43334 15.6166 6.33334 20 6.33334C24.3833 6.33334 25 6.33334 26.6666 6.43334C27.7246 6.44547 28.7728 6.63708 29.7666 7C30.524 7.28109 31.2038 7.73808 31.75 8.33334C32.2961 8.8453 32.7229 9.47122 33 10.1667C33.3704 11.1816 33.5621 12.253 33.5666 13.3333C33.65 15 33.6666 15.6167 33.6666 20C33.6666 24.3833 33.65 25 33.5666 26.6667ZM20 11.45C18.3097 11.4533 16.6583 11.9575 15.2544 12.899C13.8506 13.8405 12.7573 15.177 12.1127 16.7396C11.4681 18.3022 11.3012 20.0208 11.633 21.6782C11.9648 23.3357 12.7804 24.8576 13.9768 26.0516C15.1732 27.2457 16.6967 28.0584 18.3547 28.3869C20.0128 28.7155 21.7311 28.5452 23.2924 27.8976C24.8538 27.2499 26.1881 26.1541 27.1269 24.7484C28.0656 23.3427 28.5666 21.6903 28.5666 20C28.5689 18.8752 28.3487 17.761 27.9187 16.7216C27.4888 15.6822 26.8576 14.738 26.0614 13.9434C25.2653 13.1488 24.3199 12.5195 23.2796 12.0916C22.2394 11.6636 21.1248 11.4456 20 11.45V11.45ZM20 25.55C18.9023 25.55 17.8293 25.2245 16.9166 24.6147C16.0039 24.0048 15.2925 23.138 14.8724 22.1239C14.4524 21.1098 14.3425 19.9938 14.5566 18.9173C14.7708 17.8407 15.2994 16.8517 16.0755 16.0756C16.8517 15.2994 17.8406 14.7708 18.9172 14.5566C19.9938 14.3425 21.1097 14.4524 22.1239 14.8725C23.138 15.2925 24.0048 16.0039 24.6146 16.9166C25.2245 17.8293 25.55 18.9023 25.55 20C25.55 20.7288 25.4064 21.4505 25.1275 22.1239C24.8486 22.7973 24.4398 23.4091 23.9244 23.9244C23.4091 24.4398 22.7972 24.8486 22.1239 25.1275C21.4505 25.4064 20.7288 25.55 20 25.55V25.55Z" fill="#F08142"/>
</svg>
