<svg width="40" height="40" viewBox="0 0 40 40" fill="none" xmlns="http://www.w3.org/2000/svg">
<path d="M38.3183 6.58333C38.3183 6.28916 38.2404 6.00024 38.0925 5.74593C37.9447 5.49161 37.7321 5.28096 37.4765 5.13537C37.2209 4.98979 36.9313 4.91445 36.6371 4.91702C36.343 4.91959 36.0547 4.99997 35.8017 5.15C34.8257 5.73135 33.7749 6.17658 32.6783 6.47333C31.1133 5.13046 29.1172 4.39568 27.055 4.40333C24.7929 4.40604 22.6204 5.28772 20.9961 6.8622C19.3719 8.43668 18.4231 10.5807 18.35 12.8417C13.8897 12.1305 9.84713 9.80255 6.99334 6.30167C6.82138 6.09329 6.60189 5.92926 6.35332 5.8234C6.10476 5.71753 5.8344 5.67293 5.565 5.69333C5.29567 5.71563 5.03581 5.80314 4.80786 5.94833C4.57992 6.09352 4.39074 6.29201 4.25667 6.52667C3.56921 7.7265 3.17441 9.07155 3.10432 10.4526C3.03424 11.8336 3.29086 13.2117 3.85334 14.475L3.85 14.4767C3.59665 14.6323 3.38755 14.8505 3.24279 15.1103C3.09803 15.37 3.02246 15.6626 3.02334 15.96C3.02066 16.2047 3.0357 16.4492 3.06834 16.6917C3.23854 18.7884 4.16773 20.7511 5.68167 22.2117C5.57894 22.4075 5.51629 22.6219 5.49741 22.8423C5.47852 23.0626 5.50377 23.2845 5.57167 23.495C6.23164 25.5519 7.63543 27.2885 9.50834 28.365C7.60529 29.1007 5.5505 29.3571 3.525 29.1117C3.15029 29.0651 2.77086 29.1471 2.44885 29.3443C2.12684 29.5415 1.88135 29.8422 1.75257 30.1972C1.62379 30.5521 1.61937 30.9403 1.74002 31.2981C1.86067 31.6559 2.09924 31.9622 2.41667 32.1667C5.90035 34.4101 9.95647 35.6026 14.1 35.6017C18.7987 35.6546 23.3832 34.1532 27.1404 31.331C30.8976 28.5088 33.6168 24.5241 34.875 19.9967C35.4633 18.0246 35.7636 15.9779 35.7667 13.92L35.765 13.5867C36.6353 12.648 37.3094 11.545 37.7478 10.3425C38.1863 9.13987 38.3802 7.86186 38.3183 6.58333V6.58333ZM32.8083 11.9367C32.5328 12.262 32.3931 12.681 32.4183 13.1067C32.435 13.3817 32.4333 13.6583 32.4333 13.92C32.4298 15.6586 32.1749 17.3876 31.6767 19.0533C30.6495 22.906 28.359 26.3025 25.1721 28.6989C21.9853 31.0952 18.0864 32.3527 14.1 32.27C12.6686 32.2702 11.2421 32.1018 9.85 31.7683C11.6255 31.1957 13.2856 30.3132 14.7533 29.1617C15.024 28.9489 15.2221 28.6575 15.3204 28.3276C15.4188 27.9976 15.4126 27.6453 15.3026 27.3191C15.1926 26.9929 14.9843 26.7087 14.7063 26.5056C14.4283 26.3025 14.0942 26.1905 13.75 26.185C12.3645 26.1633 11.0416 25.6046 10.06 24.6267C10.3089 24.58 10.5561 24.5217 10.8017 24.4517C11.1617 24.3493 11.4768 24.1287 11.6962 23.8255C11.9156 23.5222 12.0266 23.1539 12.0112 22.78C11.9958 22.406 11.8549 22.048 11.6113 21.7639C11.3677 21.4797 11.0356 21.2857 10.6683 21.2133C9.86416 21.0545 9.10745 20.7123 8.45705 20.2134C7.80666 19.7145 7.28011 19.0722 6.91834 18.3367C7.21959 18.3778 7.52278 18.4034 7.82667 18.4133C8.18781 18.4193 8.54145 18.31 8.83633 18.1015C9.13121 17.8929 9.35199 17.5958 9.46667 17.2533C9.57676 16.9079 9.57123 16.5361 9.45092 16.1941C9.33062 15.8521 9.1021 15.5587 8.8 15.3583C8.06656 14.8701 7.46568 14.2076 7.05119 13.4301C6.6367 12.6526 6.42155 11.7844 6.425 10.9033C6.425 10.7933 6.42834 10.6817 6.435 10.5733C10.1708 14.0577 15.0165 16.1117 20.1183 16.3733C20.3759 16.3831 20.6324 16.3342 20.8683 16.2302C21.1042 16.1263 21.3134 15.97 21.48 15.7733C21.6451 15.5754 21.762 15.3419 21.8215 15.0912C21.8811 14.8405 21.8817 14.5793 21.8233 14.3283C21.7279 13.9304 21.6793 13.5226 21.6783 13.1133C21.6801 11.6879 22.2471 10.3213 23.2551 9.3134C24.263 8.30547 25.6296 7.73843 27.055 7.73667C27.7886 7.7345 28.5146 7.88445 29.1873 8.17706C29.86 8.46966 30.4648 8.89856 30.9633 9.43667C31.1556 9.64354 31.3975 9.79778 31.6662 9.88471C31.9349 9.97165 32.2214 9.98838 32.4983 9.93333C33.183 9.80025 33.8579 9.62095 34.5183 9.39667C34.068 10.318 33.4926 11.1728 32.8083 11.9367V11.9367Z" fill="#F08142"/>
</svg>
