<svg width="40" height="40" viewBox="0 0 40 40" fill="none" xmlns="http://www.w3.org/2000/svg">
<path d="M29.1667 14.9983C27.6747 14.9981 26.206 15.3674 24.8917 16.0733C24.7716 15.7572 24.5583 15.4851 24.2799 15.2931C24.0016 15.1011 23.6715 14.9983 23.3333 14.9983H16.6667C16.2246 14.9983 15.8007 15.1739 15.4881 15.4865C15.1756 15.799 15 16.223 15 16.665V36.665C15 37.107 15.1756 37.5309 15.4881 37.8435C15.8007 38.1561 16.2246 38.3317 16.6667 38.3317H23.3333C23.7754 38.3317 24.1993 38.1561 24.5118 37.8435C24.8244 37.5309 25 37.107 25 36.665V27.4983C25 27.0563 25.1756 26.6324 25.4881 26.3198C25.8007 26.0073 26.2246 25.8317 26.6667 25.8317C27.1087 25.8317 27.5326 26.0073 27.8452 26.3198C28.1577 26.6324 28.3333 27.0563 28.3333 27.4983V36.665C28.3333 37.107 28.5089 37.5309 28.8215 37.8435C29.134 38.1561 29.558 38.3317 30 38.3317H36.6667C37.1087 38.3317 37.5326 38.1561 37.8452 37.8435C38.1577 37.5309 38.3333 37.107 38.3333 36.665V24.165C38.3302 21.7348 37.3635 19.405 35.6451 17.6866C33.9266 15.9682 31.5969 15.0014 29.1667 14.9983V14.9983ZM35 34.9983H31.6667V27.4983C31.6667 26.1722 31.1399 24.9005 30.2022 23.9628C29.2645 23.0251 27.9927 22.4983 26.6667 22.4983C25.3406 22.4983 24.0688 23.0251 23.1311 23.9628C22.1934 24.9005 21.6667 26.1722 21.6667 27.4983V34.9983H18.3333V18.3317H21.6667V19.5033C21.6665 19.8488 21.7737 20.1858 21.9734 20.4676C22.1731 20.7495 22.4555 20.9624 22.7814 21.0767C23.1074 21.1911 23.4609 21.2014 23.7929 21.1062C24.125 21.0109 24.4192 20.8148 24.635 20.545C25.3832 19.5952 26.4093 18.9027 27.5701 18.5642C28.7309 18.2258 29.9684 18.2582 31.1099 18.6571C32.2513 19.0559 33.2398 19.8012 33.9372 20.789C34.6346 21.7767 35.0061 22.9575 35 24.1667V34.9983ZM11.6667 14.9983H4.99999C4.55797 14.9983 4.13404 15.1739 3.82148 15.4865C3.50892 15.799 3.33333 16.223 3.33333 16.665V36.665C3.33333 37.107 3.50892 37.5309 3.82148 37.8435C4.13404 38.1561 4.55797 38.3317 4.99999 38.3317H11.6667C12.1087 38.3317 12.5326 38.1561 12.8452 37.8435C13.1577 37.5309 13.3333 37.107 13.3333 36.665V16.665C13.3333 16.223 13.1577 15.799 12.8452 15.4865C12.5326 15.1739 12.1087 14.9983 11.6667 14.9983ZM9.99999 34.9983H6.66666V18.3317H9.99999V34.9983ZM8.35833 2.56999C7.62848 2.52553 6.89722 2.63007 6.20907 2.87726C5.52091 3.12445 4.89027 3.50911 4.35554 4.00782C3.82081 4.50654 3.39317 5.10887 3.09867 5.77814C2.80417 6.44741 2.64897 7.16962 2.64251 7.90079C2.63606 8.63196 2.77849 9.3568 3.06113 10.0312C3.34377 10.7055 3.7607 11.3153 4.28655 11.8234C4.81239 12.3315 5.43614 12.7272 6.11982 12.9865C6.80351 13.2458 7.53281 13.3632 8.26333 13.3317H8.30999C9.04025 13.3734 9.77136 13.266 10.4588 13.016C11.1462 12.766 11.7755 12.3787 12.3084 11.8777C12.8413 11.3766 13.2666 10.7723 13.5584 10.1016C13.8501 9.43086 14.0023 8.70774 14.0056 7.9763C14.0089 7.24486 13.8632 6.5204 13.5775 5.84708C13.2917 5.17375 12.8719 4.56565 12.3435 4.05983C11.8151 3.55402 11.1893 3.16107 10.5042 2.90493C9.81905 2.6488 9.08893 2.53484 8.35833 2.56999V2.56999ZM8.30999 9.99833H8.26333C7.97507 10.0335 7.68261 10.0067 7.40558 9.91955C7.12855 9.83244 6.87335 9.68709 6.65711 9.49326C6.44086 9.29943 6.26857 9.0616 6.15178 8.79571C6.035 8.52983 5.97643 8.24204 5.97999 7.95166C5.97999 6.70666 6.91333 5.90333 8.35833 5.90333C8.64934 5.86503 8.94519 5.88947 9.22598 5.975C9.50677 6.06053 9.766 6.20517 9.98624 6.39921C10.2065 6.59325 10.3827 6.83218 10.5029 7.09996C10.6231 7.36773 10.6846 7.65814 10.6833 7.95166C10.6833 9.19499 9.74999 9.99833 8.30833 9.99833H8.30999Z" fill="#F08142"/>
</svg>
