<svg width="40" height="40" viewBox="0 0 40 40" fill="none" xmlns="http://www.w3.org/2000/svg">
<path d="M16.7834 34.1717C16.7832 33.9275 16.7294 33.6863 16.6257 33.4652C16.522 33.2441 16.3711 33.0485 16.1834 32.8922C15.9958 32.7359 15.7762 32.6228 15.54 32.5608C15.3038 32.4987 15.0569 32.4894 14.8167 32.5333C12.6334 32.9333 9.87836 32.9933 9.14669 30.9367C8.50796 29.3433 7.45002 27.9525 6.08502 26.9117C5.98731 26.8584 5.8942 26.7971 5.80669 26.7283C5.68716 26.4135 5.47509 26.1423 5.1984 25.9505C4.92172 25.7586 4.5934 25.655 4.25669 25.6533H4.24836C3.80777 25.6533 3.3851 25.8278 3.07278 26.1385C2.76046 26.4493 2.58389 26.8711 2.58169 27.3117C2.57502 28.67 3.93169 29.5417 4.48336 29.835C5.13333 30.4881 5.65562 31.2568 6.02336 32.1017C6.63169 33.8067 8.39502 36.395 13.4667 36.0617L13.4717 36.225L13.4784 36.6717C13.4784 37.1137 13.654 37.5376 13.9665 37.8502C14.2791 38.1627 14.703 38.3383 15.145 38.3383C15.587 38.3383 16.011 38.1627 16.3235 37.8502C16.6361 37.5376 16.8117 37.1137 16.8117 36.6717L16.8034 36.1417C16.795 35.825 16.7834 35.3683 16.7834 34.1717V34.1717ZM34.5617 8.96167C34.615 8.75333 34.6667 8.52167 34.7117 8.26167C34.9813 6.40435 34.7465 4.50869 34.0317 2.77333C33.9416 2.54725 33.8032 2.34359 33.6261 2.17662C33.4491 2.00964 33.2377 1.88337 33.0067 1.80667C32.4134 1.60667 30.2234 1.21167 26.0334 3.89C22.5509 3.07054 18.9258 3.07054 15.4434 3.89C11.27 1.25 9.09169 1.61 8.50336 1.79833C8.26655 1.87183 8.04919 1.99739 7.86721 2.16581C7.68524 2.33423 7.54326 2.54124 7.45169 2.77167C6.72161 4.54047 6.48878 6.47515 6.77836 8.36667C6.82002 8.57833 6.86336 8.77667 6.91002 8.95667C5.5287 10.7961 4.79288 13.0398 4.81669 15.34C4.81253 15.8526 4.83646 16.365 4.88836 16.875C5.44502 24.5467 10.445 26.8483 13.9284 27.64C13.8527 27.8591 13.7871 28.0816 13.7317 28.3067C13.6258 28.7359 13.6948 29.1896 13.9234 29.5679C14.1521 29.9463 14.5216 30.2183 14.9509 30.3242C15.3801 30.43 15.8337 30.3611 16.2121 30.1324C16.5905 29.9038 16.8625 29.5342 16.9684 29.105C17.0744 28.5496 17.3464 28.0394 17.7484 27.6417C17.9908 27.4288 18.1663 27.1501 18.2535 26.8394C18.3407 26.5287 18.3358 26.1994 18.2394 25.8915C18.143 25.5835 17.9594 25.3102 17.7107 25.1046C17.462 24.899 17.1589 24.77 16.8384 24.7333C11.0817 24.075 8.58169 21.73 8.20502 16.5683C8.16377 16.1597 8.14541 15.749 8.15002 15.3383C8.12355 13.6993 8.66534 12.1016 9.68336 10.8167C9.7852 10.683 9.89367 10.5545 10.0084 10.4317C10.2126 10.2032 10.3499 9.92292 10.4051 9.62154C10.4604 9.32016 10.4315 9.00937 10.3217 8.72333C10.2095 8.4229 10.123 8.11344 10.0634 7.79833C9.92764 6.90074 9.97241 5.98508 10.195 5.105C11.6436 5.5143 13.0069 6.18043 14.22 7.07167C14.4205 7.20517 14.6473 7.29404 14.8851 7.33229C15.1229 7.37053 15.3661 7.35725 15.5984 7.29333C18.9669 6.37911 22.5184 6.37968 25.8867 7.295C26.1202 7.35891 26.3648 7.37144 26.6036 7.33174C26.8424 7.29203 27.0698 7.20103 27.27 7.065C28.4779 6.17036 29.8359 5.49869 31.28 5.08167C31.501 5.94024 31.5503 6.834 31.425 7.71167C31.3646 8.05732 31.2702 8.39618 31.1434 8.72333C31.0335 9.00937 31.0046 9.32016 31.0599 9.62154C31.1152 9.92292 31.2525 10.2032 31.4567 10.4317C31.5867 10.5767 31.715 10.7317 31.83 10.8783C32.8406 12.1416 33.373 13.721 33.3334 15.3383C33.3361 15.7708 33.315 16.2032 33.27 16.6333C32.9034 21.7267 30.395 24.0733 24.6117 24.7333C24.2907 24.7697 23.9873 24.8986 23.7382 25.1043C23.4892 25.31 23.3053 25.5837 23.2089 25.8919C23.1125 26.2002 23.1077 26.5299 23.1952 26.8408C23.2827 27.1517 23.4587 27.4306 23.7017 27.6433C24.1159 28.0516 24.3881 28.5821 24.4784 29.1567C24.5915 29.6031 24.6436 30.0629 24.6334 30.5233V34.4117C24.6167 35.4917 24.6167 36.3 24.6167 36.6717C24.6167 37.1137 24.7923 37.5376 25.1048 37.8502C25.4174 38.1627 25.8413 38.3383 26.2834 38.3383C26.7254 38.3383 27.1493 38.1627 27.4619 37.8502C27.7744 37.5376 27.95 37.1137 27.95 36.6717C27.95 36.31 27.95 35.5183 27.9667 34.4383V30.5217C27.9799 29.785 27.893 29.0499 27.7084 28.3367C27.6557 28.1024 27.5912 27.871 27.515 27.6433C30.0503 27.2219 32.3539 25.9145 34.0157 23.954C35.6775 21.9934 36.5897 19.5068 36.59 16.9367C36.645 16.4057 36.6706 15.8721 36.6667 15.3383C36.7036 13.0363 35.9618 10.7893 34.5617 8.96167V8.96167Z" fill="#F08142"/>
</svg>
